<svg width="25" height="17" viewBox="0 0 25 17" fill="none" xmlns="http://www.w3.org/2000/svg">
<path d="M1.38889 9.91671C2.15595 9.91671 2.77778 9.28244 2.77778 8.50004C2.77778 7.71764 2.15595 7.08337 1.38889 7.08337C0.621827 7.08337 0 7.71764 0 8.50004C0 9.28244 0.621827 9.91671 1.38889 9.91671Z" fill="black"/>
<path d="M23.6944 7.08337H6.8611C6.14006 7.08337 5.55554 7.67958 5.55554 8.41504V8.58504C5.55554 9.3205 6.14006 9.91671 6.8611 9.91671H23.6944C24.4155 9.91671 25 9.3205 25 8.58504V8.41504C25 7.67958 24.4155 7.08337 23.6944 7.08337Z" fill="black"/>
<path d="M23.6944 14.1666H1.30556C0.584517 14.1666 0 14.7628 0 15.4983V15.6683C0 16.4038 0.584517 17 1.30556 17H23.6944C24.4155 17 25 16.4038 25 15.6683V15.4983C25 14.7628 24.4155 14.1666 23.6944 14.1666Z" fill="black"/>
<path d="M23.6944 0H1.30556C0.584517 0 0 0.596207 0 1.33167V1.50167C0 2.23713 0.584517 2.83333 1.30556 2.83333H23.6944C24.4155 2.83333 25 2.23713 25 1.50167V1.33167C25 0.596207 24.4155 0 23.6944 0Z" fill="black"/>
</svg>
